HIERARCHY
ROOT SpineBase
{
  OFFSET 0.000000 0.000000 0.000000
  CHANNELS 6 Xposition Yposition Zposition Zrotation Xrotation Yrotation
  JOINT SpineMid
  {
    OFFSET 0.000000 26.544512 0.000000
    CHANNELS 3 Zrotation Xrotation Yrotation
    JOINT SpineShoulder
    {
      OFFSET -0.029075 19.704703 -0.559660
      CHANNELS 3 Zrotation Xrotation Yrotation
      JOINT Neck
      {
        OFFSET -0.032934 6.528046 -0.453353
        CHANNELS 3 Zrotation Xrotation Yrotation
        JOINT Head
        {
          OFFSET -0.147061 11.212560 -1.674483
          CHANNELS 3 Zrotation Xrotation Yrotation
          End Site
          {
            OFFSET 0 0 0
          }
        }
      }
      JOINT ShoulderLeft
      {
        OFFSET -14.786243 -0.604476 4.258560
        CHANNELS 3 Zrotation Xrotation Yrotation
        JOINT ElbowLeft
        {
          OFFSET -4.307514 -21.524460 -1.100363
          CHANNELS 3 Zrotation Xrotation Yrotation
          JOINT WristLeft
          {
            OFFSET -0.273044 -19.587908 -2.919233
            CHANNELS 3 Zrotation Xrotation Yrotation
            JOINT HandLeft
            {
              OFFSET 0.621649 -7.202090 0.113731
              CHANNELS 3 Zrotation Xrotation Yrotation
              JOINT HandTipLeft
              {
                OFFSET 0.032681 -6.188753 -1.851378
                CHANNELS 3 Zrotation Xrotation Yrotation
                End Site
                {
                  OFFSET 0 0 0
                }
              }
              JOINT ThumbLeft
              {
                OFFSET -3.286795 1.448515 -0.580308
                CHANNELS 3 Zrotation Xrotation Yrotation
                End Site
                {
                  OFFSET 0 0 0
                }
              }
            }
          }
        }
      }
      JOINT ShoulderRight
      {
        OFFSET 13.948953 -2.152442 -2.784601
        CHANNELS 3 Zrotation Xrotation Yrotation
        JOINT ElbowRight
        {
          OFFSET 6.834281 -18.929217 -0.660919
          CHANNELS 3 Zrotation Xrotation Yrotation
          JOINT WristRight
          {
            OFFSET -0.553674 -17.139505 -0.773442
            CHANNELS 3 Zrotation Xrotation Yrotation
            JOINT HandRight
            {
              OFFSET -3.188666 -4.539050 -0.751332
              CHANNELS 3 Zrotation Xrotation Yrotation
              JOINT HandTipRight
              {
                OFFSET -0.084995 -6.868204 -1.855865
                CHANNELS 3 Zrotation Xrotation Yrotation
                End Site
                {
                  OFFSET 0 0 0
                }
              }
              JOINT ThumbRight
              {
                OFFSET -4.668531 1.830558 -3.991134
                CHANNELS 3 Zrotation Xrotation Yrotation
                End Site
                {
                  OFFSET 0 0 0
                }
              }
            }
          }
        }
      }
    }
  }
  JOINT HipLeft
  {
    OFFSET -5.857076 0.622345 -1.711366
    CHANNELS 3 Zrotation Xrotation Yrotation
    JOINT KneeLeft
    {
      OFFSET -0.285099 -38.058828 7.756261
      CHANNELS 3 Zrotation Xrotation Yrotation
      JOINT AnkleLeft
      {
        OFFSET 1.452677 -38.704288 13.310854
        CHANNELS 3 Zrotation Xrotation Yrotation
        JOINT FootLeft
        {
          OFFSET -2.768630 -3.172514 -12.082261
          CHANNELS 3 Zrotation Xrotation Yrotation
          End Site
          {
            OFFSET 0 0 0
          }
        }
      }
    }
  }
  JOINT HipRight
  {
    OFFSET 5.312003 0.921346 -4.324874
    CHANNELS 3 Zrotation Xrotation Yrotation
    JOINT KneeRight
    {
      OFFSET 2.887119 -38.513303 5.555413
      CHANNELS 3 Zrotation Xrotation Yrotation
      JOINT AnkleRight
      {
        OFFSET 2.924159 -36.767854 14.020128
        CHANNELS 3 Zrotation Xrotation Yrotation
        JOINT FootRight
        {
          OFFSET -2.276016 -3.471104 -11.050222
          CHANNELS 3 Zrotation Xrotation Yrotation
          End Site
          {
            OFFSET 0 0 0
          }
        }
      }
    }
  }
}
MOTION
Frames: 6
Frame Time: 0.033333
28.554804 81.622480 311.383924 0.427566 -7.597383 17.868234 -0.299321 -0.632407 -17.835626 -0.065796 -0.101114 -0.015923 1.102743 9.315606 0.047172 0.000000 0.000000 0.000000 -6.859333 -6.388199 3.455698 -4.208726 3.372651 -0.574707 -10.779299 3.235465 -1.244816 16.790323 -0.622052 1.315822 0.000000 0.000000 0.000000 0.000000 0.000000 0.000000 11.879823 28.363642 2.885470 52.145520 65.182299 -52.213965 19.889558 -13.454939 -50.482972 -18.626576 10.472580 58.741379 0.000000 0.000000 0.000000 0.000000 0.000000 0.000000 -2.456610 22.249047 -18.717317 6.936319 -12.766822 1.693782 2.849981 -4.405638 2.284732 0.000000 0.000000 0.000000 3.229086 7.049661 -17.929021 -0.527488 -0.948805 0.042978 -1.435700 -1.230681 3.356843 0.000000 0.000000 0.000000
27.263890 81.363341 310.358175 0.198144 -7.931499 21.046901 -0.270093 -0.269868 -21.033484 -0.161438 0.053850 -0.026948 3.254524 8.328040 0.054807 0.000000 0.000000 0.000000 -6.538475 -8.245623 3.686204 -4.764900 3.729578 -0.595269 -11.920471 2.133934 -1.548354 18.330871 -4.089744 0.923679 0.000000 0.000000 0.000000 0.000000 0.000000 0.000000 9.414147 33.213848 5.322989 67.821194 60.929934 -57.932891 13.897543 -13.955088 -63.596806 -11.770519 12.950017 74.803309 0.000000 0.000000 0.000000 0.000000 0.000000 0.000000 -0.821997 21.763241 -22.136095 3.746377 -8.520728 0.308574 5.268863 -8.065471 5.479891 0.000000 0.000000 0.000000 4.088562 5.636930 -21.175160 -0.158920 -0.004665 0.400102 -3.071328 -1.134103 5.294219 0.000000 0.000000 0.000000
26.175809 81.367519 309.200140 0.491355 -8.072648 23.608841 -0.066664 -0.206332 -23.572639 -0.126232 0.100003 -0.008102 2.052625 8.518350 0.052809 0.000000 0.000000 0.000000 -6.105046 -9.821727 3.880730 -5.999791 4.597076 -0.429906 -13.017740 0.987704 -1.838651 18.091938 -5.459563 1.194112 0.000000 0.000000 0.000000 0.000000 0.000000 0.000000 5.622076 42.838988 9.729849 61.129445 52.761673 -43.884330 10.502169 -14.745986 -67.204950 -6.565942 21.550399 83.356188 0.000000 0.000000 0.000000 0.000000 0.000000 0.000000 0.098324 21.409839 -24.818758 1.169191 -5.219462 -0.648126 7.265505 -11.021309 8.225189 0.000000 0.000000 0.000000 3.680414 4.617308 -23.742553 0.723633 0.730513 0.759585 -4.468805 -1.012206 6.927730 0.000000 0.000000 0.000000
24.553411 81.509340 307.783791 0.512927 -8.136057 27.345523 -0.001041 -0.334293 -27.312197 0.136680 -0.050202 -0.003410 1.566942 9.642682 0.038401 0.000000 0.000000 0.000000 -5.594585 -9.992354 3.958771 -6.825124 4.102339 -0.381372 -14.119446 -0.643548 -2.212545 16.555744 -2.722502 2.137390 0.000000 0.000000 0.000000 0.000000 0.000000 0.000000 -0.612466 51.079812 15.741842 51.769067 46.623640 -33.025666 9.113241 -14.635388 -64.819040 -4.645805 22.917563 80.651609 0.000000 0.000000 0.000000 0.000000 0.000000 0.000000 1.846725 20.432681 -28.760323 -0.827224 -2.364088 -1.212764 8.253420 -13.419421 11.285184 0.000000 0.000000 0.000000 4.072547 3.025368 -27.469070 1.201372 1.485995 1.107444 -6.301539 -0.962526 9.093571 0.000000 0.000000 0.000000
22.789002 81.780604 306.449569 0.313608 -8.150553 31.890958 0.136476 -0.567326 -31.888374 0.455445 -0.190760 -0.002115 1.127713 11.066079 0.025660 0.000000 0.000000 0.000000 -5.140272 -9.734820 3.958714 -7.179998 3.123417 -0.470747 -16.246582 -2.384433 -2.446480 18.279473 1.917315 2.049618 0.000000 0.000000 0.000000 0.000000 0.000000 0.000000 -14.949161 56.729370 27.250240 41.189468 41.245136 -24.389961 9.435813 -15.699633 -55.726926 -5.535544 22.320397 70.192047 0.000000 0.000000 0.000000 0.000000 0.000000 0.000000 3.699692 19.858299 -33.593876 -0.846318 -1.305817 -1.088769 7.729994 -14.633525 13.571727 0.000000 0.000000 0.000000 4.814865 1.248319 -31.976657 1.262242 1.692658 1.338167 -7.911320 -0.616772 11.201030 0.000000 0.000000 0.000000
20.982799 82.099279 305.133357 0.097989 -8.053127 36.688919 0.178929 -0.793371 -36.716109 0.701179 -0.289113 -0.002999 2.011104 10.839260 0.000107 0.000000 0.000000 0.000000 -5.138150 -10.186646 4.061929 -6.277961 2.777364 -0.916422 -19.004449 -3.081756 -2.120054 18.805882 5.381671 2.569396 0.000000 0.000000 0.000000 0.000000 0.000000 0.000000 -33.717942 57.278715 41.163369 30.219764 36.655906 -19.006467 15.692438 -14.917132 -43.799643 -13.924894 13.369795 56.437227 0.000000 0.000000 0.000000 0.000000 0.000000 0.000000 5.529142 19.104050 -38.661145 -0.247829 -1.116014 -0.781024 6.487661 -15.184274 15.900954 0.000000 0.000000 0.000000 5.384736 -0.781716 -36.689660 1.214294 2.028871 1.563439 -9.612515 -0.505490 13.614834 0.000000 0.000000 0.000000
